<?xml version="1.0" encoding="utf-8"?>
<!-- Generator: Adobe Illustrator 17.1.0, SVG Export Plug-In . SVG Version: 6.00 Build 0)  -->
<!DOCTYPE svg PUBLIC "-//W3C//DTD SVG 1.1//EN" "http://www.w3.org/Graphics/SVG/1.1/DTD/svg11.dtd">
<svg version="1.1" id="Layer_1" xmlns="http://www.w3.org/2000/svg" xmlns:xlink="http://www.w3.org/1999/xlink" x="0px" y="0px"
	 viewBox="0 123.3 595.3 595.3" enable-background="new 0 123.3 595.3 595.3" xml:space="preserve">
<g>
	<g>
		<path fill="#FFFFFF" d="M583.4,665.3H71.1l64.7-71.9c5.7,3,12.1,4.7,19,4.7c15.8,0,29.5-9,36.3-22.2l66.1,16.7
			c1.7,20.9,19.3,37.3,40.6,37.3c22.5,0,40.7-18.3,40.7-40.7c0-12.4-5.6-23.5-14.3-31l53.9-128.8l38.4,97.8
			c-9.2,7.5-15,18.9-15,31.6c0,22.5,18.3,40.7,40.7,40.7c22.5,0,40.7-18.3,40.7-40.7c0-4.6-0.8-9-2.2-13.1l47.1-47.1
			c4.6-4.6,4.6-12.1,0-16.8c-4.6-4.6-12.1-4.6-16.8,0l-44.4,44.4c-6.8-5.1-15.3-8.2-24.4-8.2c-1.3,0-2.5,0.1-3.7,0.2L391.1,398
			l47.4-113.3c1.2,0.1,2.3,0.2,3.5,0.2c18.9,0,34.8-12.9,39.4-30.3H556c6.5,0,11.9-5.3,11.9-11.9c0-6.5-5.3-11.9-11.9-11.9h-75.5
			c-5.5-15.9-20.7-27.4-38.5-27.4c-22.5,0-40.7,18.3-40.7,40.7c0,12.8,5.9,24.2,15.2,31.7l-37.8,90.4l-55.2-140.9
			c8.3-7.5,13.5-18.3,13.5-30.3c0-22.5-18.3-40.7-40.7-40.7c-22.5,0-40.7,18.3-40.7,40.7c0,9.7,3.4,18.6,9.1,25.7l-97.8,148.1
			c-4.2-1.5-8.8-2.3-13.5-2.3c-4.9,0-9.5,0.9-13.9,2.4l-84-110.5V137.3c0-6.5-5.3-11.9-11.9-11.9s-11.9,5.3-11.9,11.9v116.6H11.9
			c-6.5,0-11.9,5.3-11.9,11.9s5.3,11.9,11.9,11.9h19.9v119.2H11.9c-6.5,0-11.9,5.3-11.9,11.9c0,6.5,5.3,11.9,11.9,11.9h19.9v122.1
			H11.9c-6.5,0-11.9,5.3-11.9,11.9c0,6.5,5.3,11.9,11.9,11.9h19.9v110.8c0,6.5,5.3,11.9,11.9,11.9h102.2v15.6
			c0,6.5,5.3,11.9,11.9,11.9s11.9-5.3,11.9-11.9V689h119.2v15.6c0,6.5,5.3,11.9,11.9,11.9c6.5,0,11.9-5.3,11.9-11.9V689h122.1v15.6
			c0,6.5,5.3,11.9,11.9,11.9c6.5,0,11.9-5.3,11.9-11.9V689h125.3c6.5,0,11.9-5.3,11.9-11.9C595.3,670.6,590,665.3,583.4,665.3z
			 M442,541.8c9.4,0,17,7.6,17,17c0,9.4-7.6,17-17,17c-9.4,0-17-7.6-17-17C425,549.4,432.6,541.8,442,541.8z M442,227.1
			c9.4,0,17,7.6,17,17c0,9.4-7.6,17-17,17c-9.4,0-17-7.6-17-17C425,234.8,432.6,227.1,442,227.1z M154.7,574.3c-9.4,0-17-7.6-17-17
			c0-9.4,7.6-17,17-17c9.4,0,17,7.6,17,17C171.8,566.7,164.1,574.3,154.7,574.3z M297.6,606.1c-9.4,0-17-7.6-17-17
			c0-9.4,7.6-17,17-17c9.4,0,17,7.6,17,17C314.6,598.5,307,606.1,297.6,606.1z M296.2,178.1c9.4,0,17,7.6,17,17c0,9.4-7.6,17-17,17
			c-9.4,0-17-7.6-17-17C279.2,185.7,286.8,178.1,296.2,178.1z M153.3,390.2c9.4,0,17,7.6,17,17s-7.6,17-17,17s-17-7.6-17-17
			C136.3,397.9,143.9,390.2,153.3,390.2z M55.5,297.6l65,85.5c-5,6.7-7.9,15.1-7.9,24.1c0,22.5,18.3,40.7,40.7,40.7
			c22.5,0,40.7-18.3,40.7-40.7c0-9.1-3-17.5-8.1-24.3L284.2,234c3.8,1.2,7.8,1.8,11.9,1.8c1.9,0,3.8-0.1,5.7-0.4l63.6,162.3
			l-63.2,151c-1.5-0.2-3.1-0.3-4.7-0.3c-15.3,0-28.6,8.5-35.6,21l-66.9-16.9c-2.4-20.1-19.6-35.8-40.4-35.8
			c-22.5,0-40.7,18.3-40.7,40.7c0,7,1.8,13.5,4.9,19.3l-63.4,70.6V297.6z"/>
	</g>
</g>
<g>
	<g>
		<path fill="#FFFFFF" d="M568,440c-4.6-4.6-12.1-4.6-16.8,0l-9.4,9.4c-4.6,4.6-4.6,12.1,0,16.8c2.3,2.3,5.4,3.5,8.4,3.5
			s6.1-1.2,8.4-3.5l9.4-9.4C572.6,452.1,572.6,444.6,568,440z"/>
	</g>
</g>
</svg>
