<?xml version="1.0" encoding="utf-8"?>
<!-- Generator: Adobe Illustrator 17.1.0, SVG Export Plug-In . SVG Version: 6.00 Build 0)  -->
<!DOCTYPE svg PUBLIC "-//W3C//DTD SVG 1.1//EN" "http://www.w3.org/Graphics/SVG/1.1/DTD/svg11.dtd">
<svg version="1.1" id="Capa_1" xmlns="http://www.w3.org/2000/svg" xmlns:xlink="http://www.w3.org/1999/xlink" x="0px" y="0px"
	 viewBox="0 123.3 595.3 595.3" enable-background="new 0 123.3 595.3 595.3" xml:space="preserve">
<g>
	<g>
		<path fill="#FFFFFF" d="M569.7,313.1h-74.2V163.5c0-22.2-18-40.2-40.2-40.2H50.7C30.5,123.3,14,139.8,14,160v521.8
			c0,20.3,16.5,36.7,36.7,36.7h476c30.1,0,54.6-24.5,54.6-54.6V324.7C581.3,318.3,576.1,313.1,569.7,313.1z M50.7,695.3L50.7,695.3
			c-7.4,0-13.5-6-13.5-13.5V160c0-7.4,6-13.5,13.5-13.5h404.5c9.3,0,16.9,7.6,16.9,16.9V664c0,11.6,3.7,22.4,9.9,31.3H50.7z
			 M526.7,695.3c-17.3,0-31.3-14-31.3-31.3V336.3H558V664h0C558,681.3,544,695.3,526.7,695.3z"/>
	</g>
</g>
<g>
	<g>
		<path fill="#FFFFFF" d="M401.6,185.6H101.2c-6.4,0-11.6,5.2-11.6,11.6v164.1c0,6.4,5.2,11.6,11.6,11.6h300.4
			c6.4,0,11.6-5.2,11.6-11.6V197.2C413.2,190.8,408,185.6,401.6,185.6z M225.1,349.7h-70.4l68.2-70.8l30.6,31.8L225.1,349.7z
			 M253.8,349.7l49.4-67.8l49.4,67.8H253.8z M390,349.7h-8.5l-68.8-94.4c-2.2-3-5.7-4.8-9.4-4.8c-3.7,0-7.2,1.8-9.4,4.8l-26.5,36.3
			l-36.2-37.5c-2.2-2.3-5.2-3.6-8.4-3.6c-3.2,0-6.2,1.3-8.4,3.6l-92.2,95.6h-9.5V208.8H390V349.7z"/>
	</g>
</g>
<g>
	<g>
		<path fill="#FFFFFF" d="M401.6,403.3H101.2c-6.4,0-11.6,5.2-11.6,11.6v46.3c0,6.4,5.2,11.6,11.6,11.6h300.4
			c6.4,0,11.6-5.2,11.6-11.6v-46.3C413.2,408.5,408,403.3,401.6,403.3z M390,449.6H112.8v-23H390V449.6z"/>
	</g>
</g>
<g>
	<g>
		<path fill="#FFFFFF" d="M406.3,516.1c-0.2-0.7-0.4-1.5-0.7-2.2c-0.3-0.7-0.7-1.4-1.1-2c-0.4-0.6-0.9-1.2-1.4-1.8
			c-0.5-0.5-1.1-1-1.8-1.5c-0.6-0.4-1.3-0.8-2-1.1c-0.7-0.3-1.4-0.5-2.2-0.7c-1.5-0.3-3-0.3-4.5,0c-0.7,0.2-1.5,0.4-2.2,0.7
			c-0.7,0.3-1.4,0.7-2,1.1c-0.6,0.4-1.2,0.9-1.8,1.5c-0.5,0.5-1,1.1-1.5,1.8c-0.4,0.6-0.8,1.3-1.1,2c-0.3,0.7-0.5,1.4-0.7,2.2
			c-0.1,0.8-0.2,1.5-0.2,2.3c0,0.8,0.1,1.5,0.2,2.3c0.2,0.7,0.4,1.5,0.7,2.2c0.3,0.7,0.7,1.4,1.1,2c0.4,0.6,0.9,1.2,1.5,1.8
			c0.5,0.5,1.1,1,1.8,1.4c0.6,0.4,1.3,0.8,2,1.1c0.7,0.3,1.4,0.5,2.2,0.7c0.8,0.2,1.5,0.2,2.3,0.2c0.8,0,1.5-0.1,2.3-0.2
			c0.7-0.2,1.5-0.4,2.2-0.7s1.4-0.7,2-1.1c0.6-0.4,1.2-0.9,1.8-1.4c0.5-0.5,1-1.1,1.4-1.8c0.4-0.6,0.8-1.3,1.1-2
			c0.3-0.7,0.5-1.4,0.7-2.2c0.2-0.8,0.2-1.5,0.2-2.3C406.5,517.6,406.4,516.8,406.3,516.1z"/>
	</g>
</g>
<g>
	<g>
		<path fill="#FFFFFF" d="M351.8,506.7H102.1c-6.4,0-11.6,5.2-11.6,11.6c0,6.4,5.2,11.6,11.6,11.6h249.7c6.4,0,11.6-5.2,11.6-11.6
			C363.4,511.9,358.2,506.7,351.8,506.7z"/>
	</g>
</g>
<g>
	<g>
		<path fill="#FFFFFF" d="M406.3,628.1c-0.2-0.7-0.4-1.5-0.7-2.2c-0.3-0.7-0.7-1.4-1.1-2c-0.4-0.6-0.9-1.2-1.4-1.8
			c-2.7-2.7-6.7-3.9-10.5-3.2c-0.7,0.2-1.5,0.4-2.2,0.7c-0.7,0.3-1.4,0.7-2,1.1c-0.6,0.4-1.2,0.9-1.8,1.5c-0.5,0.5-1,1.1-1.5,1.8
			c-0.4,0.6-0.8,1.3-1.1,2c-0.3,0.7-0.5,1.4-0.7,2.2c-0.1,0.8-0.2,1.5-0.2,2.3c0,0.8,0.1,1.5,0.2,2.3c0.2,0.7,0.4,1.5,0.7,2.2
			c0.3,0.7,0.7,1.4,1.1,2c0.4,0.6,0.9,1.2,1.5,1.8s1.1,1,1.8,1.4c0.6,0.4,1.3,0.8,2,1.1c0.7,0.3,1.4,0.5,2.2,0.7
			c0.8,0.2,1.5,0.2,2.3,0.2c0.8,0,1.5-0.1,2.3-0.2c0.7-0.2,1.5-0.4,2.2-0.7c0.7-0.3,1.4-0.7,2-1.1c0.6-0.4,1.2-0.9,1.8-1.4
			c2.2-2.2,3.4-5.2,3.4-8.2C406.5,629.6,406.4,628.8,406.3,628.1z"/>
	</g>
</g>
<g>
	<g>
		<path fill="#FFFFFF" d="M351.8,618.7H102.1c-6.4,0-11.6,5.2-11.6,11.6s5.2,11.6,11.6,11.6h249.7c6.4,0,11.6-5.2,11.6-11.6
			S358.2,618.7,351.8,618.7z"/>
	</g>
</g>
<g>
	<g>
		<path fill="#FFFFFF" d="M113.5,572.1c-0.2-0.7-0.4-1.5-0.7-2.2c-0.3-0.7-0.7-1.4-1.1-2c-0.4-0.6-0.9-1.2-1.4-1.8
			c-0.5-0.5-1.1-1-1.8-1.4c-0.6-0.4-1.3-0.8-2-1.1c-0.7-0.3-1.4-0.5-2.2-0.7c-3.8-0.8-7.8,0.5-10.5,3.2c-0.5,0.5-1,1.1-1.4,1.8
			c-0.4,0.6-0.8,1.3-1.1,2c-0.3,0.7-0.5,1.4-0.7,2.2c-0.2,0.7-0.2,1.5-0.2,2.3c0,0.8,0.1,1.5,0.2,2.3c0.2,0.7,0.4,1.5,0.7,2.2
			c0.3,0.7,0.7,1.4,1.1,2c0.4,0.6,0.9,1.2,1.4,1.8c2.2,2.2,5.2,3.4,8.2,3.4c3.1,0,6.1-1.2,8.2-3.4c2.2-2.2,3.4-5.2,3.4-8.2
			C113.7,573.6,113.6,572.8,113.5,572.1z"/>
	</g>
</g>
<g>
	<g>
		<path fill="#FFFFFF" d="M394.9,562.7H145.2c-6.4,0-11.6,5.2-11.6,11.6c0,6.4,5.2,11.6,11.6,11.6h249.7c6.4,0,11.6-5.2,11.6-11.6
			C406.5,567.9,401.3,562.7,394.9,562.7z"/>
	</g>
</g>
</svg>
