<?xml version="1.0" encoding="utf-8"?>
<!-- Generator: Adobe Illustrator 17.1.0, SVG Export Plug-In . SVG Version: 6.00 Build 0)  -->
<!DOCTYPE svg PUBLIC "-//W3C//DTD SVG 1.1//EN" "http://www.w3.org/Graphics/SVG/1.1/DTD/svg11.dtd">
<svg version="1.1" id="Capa_1" xmlns="http://www.w3.org/2000/svg" xmlns:xlink="http://www.w3.org/1999/xlink" x="0px" y="0px"
	 viewBox="0 0 512 512" enable-background="new 0 0 512 512" xml:space="preserve">
<g id="XMLID_1083_">
	<g id="XMLID_277_">
		<path id="XMLID_292_" fill="#FFFFFF" d="M202.2,164.2l-3.3,1.3c-5.5-9.6-15.9-16.1-27.7-16.1h-50.6c-17.6,0-31.9,14.3-31.9,31.9
			v144c0,17.6,14.3,31.9,31.9,31.9h50.6c10,0,19-4.6,24.8-11.9c17.6,7.8,36.9,11.9,56.1,11.9h107c17.9,0,32.5-14.6,32.5-32.5
			c0-5.6-1.4-10.9-3.9-15.5c11.2-5.2,19-16.5,19-29.6c0-5.4-1.3-10.5-3.6-14.9c11.9-4.9,20.3-16.5,20.3-30.1s-8.4-25.3-20.3-30.1
			c2.3-4.5,3.6-9.6,3.6-14.9c0-17.9-14.6-32.5-32.5-32.5h-53.3c-5,0-9.1-4.1-9.1-9.1v-29.4c0-29.3-23.9-53.2-53.2-53.2
			c-12.9,0-23.3,10.5-23.3,23.3v26.3C235.2,136.5,222.2,155.9,202.2,164.2L202.2,164.2z M171.2,337.2h-50.6
			c-6.6,0-11.9-5.3-11.9-11.9v-144c0-6.6,5.3-11.9,11.9-11.9h50.6c6.6,0,11.9,5.3,11.9,11.9v144
			C183.1,331.8,177.8,337.2,171.2,337.2z M255.2,114.8V88.5c0-1.8,1.5-3.3,3.3-3.3c18.3,0,33.2,14.9,33.2,33.2v29.4
			c0,16.1,13.1,29.1,29.1,29.1h53.3c6.9,0,12.5,5.6,12.5,12.5c0,6.9-5.6,12.5-12.5,12.5h-62.4c-5.5,0-10,4.5-10,10
			c0,5.5,4.5,10,10,10h79c6.9,0,12.5,5.6,12.5,12.5c0,6.9-5.6,12.5-12.5,12.5h-79c-5.5,0-10,4.5-10,10c0,5.5,4.5,10,10,10h62.4
			c6.9,0,12.5,5.6,12.5,12.5s-5.6,12.5-12.5,12.5h-62.4c-5.5,0-10,4.5-10,10s4.5,10,10,10h47.4c6.9,0,12.5,5.6,12.5,12.5
			c0,6.9-5.6,12.5-12.5,12.5h-107c-16.9,0-33.7-3.7-49.1-10.7c0-0.4,0-0.8,0-1.2V185.4l6.7-2.8C237.4,171.3,255.2,144.7,255.2,114.8
			L255.2,114.8z"/>
		<path id="XMLID_297_" fill="#FFFFFF" d="M422,20H301c-5.5,0-10,4.5-10,10s4.5,10,10,10h121c38.6,0,70,31.4,70,70v232
			c0,38.6-31.4,70-70,70H290.6c-3.6,0-6.9,1.9-8.7,5l-26,45l-26-45c-1.8-3.1-5.1-5-8.7-5H90c-38.6,0-70-31.4-70-70V110
			c0-38.6,31.4-70,70-70h121c5.5,0,10-4.5,10-10s-4.5-10-10-10H90C40.4,20,0,60.4,0,110v232c0,49.6,40.4,90,90,90h125.6l31.8,55
			c1.8,3.1,5.1,5,8.7,5c3.6,0,6.9-1.9,8.7-5l31.8-55H422c49.6,0,90-40.4,90-90V110C512,60.4,471.6,20,422,20z"/>
		<path id="XMLID_298_" fill="#FFFFFF" d="M256,40c2.6,0,5.2-1.1,7.1-2.9c1.9-1.9,2.9-4.4,2.9-7.1s-1.1-5.2-2.9-7.1
			c-1.9-1.9-4.4-2.9-7.1-2.9s-5.2,1.1-7.1,2.9c-1.9,1.9-2.9,4.4-2.9,7.1s1.1,5.2,2.9,7.1C250.8,38.9,253.4,40,256,40z"/>
	</g>
</g>
</svg>
