<?xml version="1.0" encoding="utf-8"?>
<!-- Generator: Adobe Illustrator 17.1.0, SVG Export Plug-In . SVG Version: 6.00 Build 0)  -->
<!DOCTYPE svg PUBLIC "-//W3C//DTD SVG 1.1//EN" "http://www.w3.org/Graphics/SVG/1.1/DTD/svg11.dtd">
<svg version="1.1" id="Capa_1" xmlns="http://www.w3.org/2000/svg" xmlns:xlink="http://www.w3.org/1999/xlink" x="0px" y="0px"
	 viewBox="0 0 512 512" enable-background="new 0 0 512 512" xml:space="preserve">
<g id="XMLID_2418_">
	<g id="XMLID_42_">
		<path id="XMLID_75_" fill="#FFFFFF" d="M406,280c-15.7,0-30.6,3.4-44.1,9.6l-44.5-77.1c27-19.2,44.6-50.8,44.6-86.4
			c0-40-22.1-76.1-57.7-94.4c-4.9-2.5-10.9-0.6-13.5,4.3s-0.6,10.9,4.3,13.5C324.1,64.3,342,93.6,342,126c0,19.6-6.6,37.7-17.7,52.1
			c-6.2-14.4-18.7-25.4-34.1-29.5c4.4-6.6,7-14.4,7-22.9v-5.4c0-22.7-18.5-41.2-41.2-41.2s-41.2,18.5-41.2,41.2v5.4
			c0,8.5,2.6,16.4,7,22.9c-15.4,4.1-27.9,15.1-34.1,29.5C176.6,163.7,170,145.6,170,126c0-32.4,17.9-61.8,46.8-76.6
			c4.9-2.5,6.9-8.5,4.3-13.5s-8.5-6.9-13.5-4.3C172.1,49.9,150,86.1,150,126c0,35.6,17.6,67.1,44.6,86.4l-44.5,77.1
			c-13.4-6.2-28.3-9.6-44.1-9.6C47.6,280,0,327.5,0,386s47.6,106,106,106c55.1,0,100.5-42.3,105.5-96.1h88.9
			c5,53.8,50.4,96.1,105.5,96.1c58.4,0,106-47.6,106-106S464.4,280,406,280L406,280z M234.8,120.4c0-11.7,9.5-21.2,21.2-21.2
			c11.7,0,21.2,9.5,21.2,21.2v5.4c0,11.7-9.5,21.2-21.2,21.2s-21.2-9.5-21.2-21.2V120.4z M234.8,167h42.4c15.9,0,29,11.9,31,27.3
			C293.7,205.4,275.6,212,256,212s-37.7-6.6-52.2-17.7C205.8,179,218.9,167,234.8,167L234.8,167z M211.9,222.4
			c13.4,6.2,28.4,9.6,44.1,9.6s30.7-3.4,44.1-9.6l44.5,77.1c-24.4,17.4-41.2,44.9-44.1,76.3h-89c-3-31.4-19.7-58.9-44.1-76.3
			L211.9,222.4z M53.8,454.2c2-15.4,15.1-27.3,31-27.3h42.4c15.9,0,29,11.9,31,27.3C143.7,465.3,125.6,472,106,472
			S68.3,465.3,53.8,454.2z M127.2,385.7c0,11.7-9.5,21.2-21.2,21.2s-21.2-9.5-21.2-21.2v-5.4c0-11.7,9.5-21.2,21.2-21.2
			s21.2,9.5,21.2,21.2V385.7z M174.3,438.1c-6.2-14.4-18.7-25.4-34.1-29.5c4.4-6.6,7-14.4,7-22.9v-5.4c0-22.7-18.5-41.2-41.2-41.2
			s-41.2,18.5-41.2,41.2v5.4c0,8.5,2.6,16.4,7,22.9c-15.4,4-27.9,15.1-34.1,29.5C26.6,423.6,20,405.5,20,386c0-47.4,38.6-86,86-86
			s86,38.6,86,86C192,405.5,185.4,423.6,174.3,438.1L174.3,438.1z M353.8,454.2c2-15.4,15.1-27.3,31-27.3h42.4
			c15.9,0,29,11.9,31,27.3C443.7,465.3,425.6,472,406,472S368.3,465.3,353.8,454.2z M427.2,385.7c0,11.7-9.5,21.2-21.2,21.2
			s-21.2-9.5-21.2-21.2v-5.4c0-11.7,9.5-21.2,21.2-21.2s21.2,9.5,21.2,21.2V385.7z M474.3,438.1c-6.2-14.4-18.7-25.4-34.1-29.5
			c4.4-6.6,7-14.4,7-22.9v-5.4c0-22.7-18.5-41.2-41.2-41.2s-41.2,18.5-41.2,41.2v5.4c0,8.5,2.6,16.4,7,22.9
			c-15.4,4-27.9,15.1-34.1,29.5C326.6,423.6,320,405.5,320,386c0-47.4,38.6-86,86-86s86,38.6,86,86
			C492,405.5,485.4,423.6,474.3,438.1L474.3,438.1z"/>
		<path id="XMLID_1069_" fill="#FFFFFF" d="M256,40c2.6,0,5.2-1.1,7.1-2.9s2.9-4.4,2.9-7.1c0-2.6-1.1-5.2-2.9-7.1S258.6,20,256,20
			s-5.2,1.1-7.1,2.9S246,27.4,246,30s1.1,5.2,2.9,7.1S253.4,40,256,40z"/>
	</g>
</g>
</svg>
